<?xml version="1.0" standalone="no"?>
<!DOCTYPE svg PUBLIC "-//W3C//DTD SVG 20010904//EN"
 "http://www.w3.org/TR/2001/REC-SVG-20010904/DTD/svg10.dtd">
<svg version="1.0" xmlns="http://www.w3.org/2000/svg"
 width="512.000000pt" height="512.000000pt" viewBox="0 0 512.000000 512.000000"
 preserveAspectRatio="xMidYMid meet">
<metadata>
Created by potrace 1.11, written by Peter Selinger 2001-2013
</metadata>
<g transform="translate(0.000000,512.000000) scale(0.100000,-0.100000)"
fill="#000000" stroke="none">
<path d="M2585 5030 c-88 -51 -189 -108 -225 -128 -36 -19 -98 -55 -138 -79
-41 -24 -75 -43 -77 -43 -3 0 -168 -92 -195 -110 -16 -10 -120 -68 -215 -120
-33 -18 -65 -37 -72 -42 -7 -5 -27 -18 -45 -27 -62 -33 -133 -74 -147 -85 -10
-8 -139 -11 -425 -12 -226 0 -426 -4 -444 -8 -22 -5 -40 -19 -53 -39 -18 -31
-19 -67 -19 -1313 l0 -1281 -125 -288 c-69 -158 -132 -302 -139 -319 -8 -17
-70 -159 -137 -316 l-123 -285 -4 -200 c-4 -239 0 -277 36 -310 l27 -25 2488
0 c2333 0 2491 1 2518 17 46 27 50 59 46 305 l-4 223 -108 245 c-59 135 -124
284 -146 333 -21 48 -39 89 -39 91 0 3 -13 33 -29 68 -16 35 -67 153 -115 264
l-86 201 0 1277 c0 1081 -2 1281 -14 1304 -26 51 -49 56 -274 57 -205 0 -208
1 -252 27 -52 30 -322 183 -395 223 -124 69 -562 317 -575 325 -8 6 -22 13
-30 17 -8 4 -48 26 -88 50 -40 24 -75 43 -78 43 -3 0 -18 9 -34 20 -15 10 -45
22 -66 25 -35 5 -53 -2 -199 -85z"/>
</g>
</svg>
